<svg width="70" height="95" viewBox="0 0 70 95" fill="none" xmlns="http://www.w3.org/2000/svg">
<g clip-path="url(#clip0_4_712)">
<path d="M69.4225 4.31029V90.7055C69.4225 93.0896 67.4963 95.0158 65.1122 95.0158H4.31029C1.92621 95 0 93.0738 0 90.7055V4.31029C0 1.92621 1.92621 0 4.31029 0H65.128C67.4963 0 69.4225 1.92621 69.4225 4.31029Z" fill="url(#paint0_linear_4_712)"/>
<path d="M65 7.94666V87.0533C65 89.2363 63.3075 91 61.2126 91H7.78735C5.69252 90.9855 4 89.2218 4 87.0533V7.94666C4 5.76371 5.69252 4 7.78735 4H61.2265C63.3075 4 65 5.76371 65 7.94666Z" fill="url(#paint1_linear_4_712)"/>
<path opacity="0.5" d="M58.5757 39.6767H10.8468C10.531 39.6767 10.2784 39.4241 10.2784 39.1083V37.2926C10.2784 36.9769 10.531 36.7242 10.8468 36.7242H58.5757C58.8915 36.7242 59.1441 36.9769 59.1441 37.2926V39.1083C59.1283 39.4241 58.8915 39.6767 58.5757 39.6767Z" fill="url(#paint2_linear_4_712)"/>
<path d="M58.5757 17.0517H34.8928C34.577 17.0517 34.3244 16.7991 34.3244 16.4833V14.6834C34.3244 14.3676 34.577 14.115 34.8928 14.115H58.5757C58.8915 14.115 59.1441 14.3676 59.1441 14.6834V16.4991C59.1283 16.7991 58.8915 17.0517 58.5757 17.0517Z" fill="url(#paint3_linear_4_712)"/>
<path opacity="0.5" d="M51.5656 24.7249H34.8928C34.577 24.7249 34.3244 24.4723 34.3244 24.1565V22.3408C34.3244 22.0251 34.577 21.7725 34.8928 21.7725H51.5656C51.8813 21.7725 52.1339 22.0251 52.1339 22.3408V24.1565C52.1182 24.4723 51.8813 24.7249 51.5656 24.7249Z" fill="url(#paint4_linear_4_712)"/>
<path opacity="0.5" d="M58.5757 48.2973H10.8468C10.531 48.2973 10.2784 48.0447 10.2784 47.7289V45.9132C10.2784 45.5975 10.531 45.3448 10.8468 45.3448H58.5757C58.8915 45.3448 59.1441 45.5975 59.1441 45.9132V47.7289C59.1283 48.0447 58.8915 48.2973 58.5757 48.2973Z" fill="url(#paint5_linear_4_712)"/>
<path opacity="0.5" d="M58.5757 56.9179H10.8468C10.531 56.9179 10.2784 56.6652 10.2784 56.3495V54.5338C10.2784 54.218 10.531 53.9654 10.8468 53.9654H58.5757C58.8915 53.9654 59.1441 54.218 59.1441 54.5338V56.3653C59.1283 56.6652 58.8915 56.9179 58.5757 56.9179Z" fill="url(#paint6_linear_4_712)"/>
<path opacity="0.5" d="M58.5757 65.5542H10.8468C10.531 65.5542 10.2784 65.3016 10.2784 64.9858V63.1701C10.2784 62.8544 10.531 62.6017 10.8468 62.6017H58.5757C58.8915 62.6017 59.1441 62.8544 59.1441 63.1701V64.9858C59.1283 65.3016 58.8915 65.5542 58.5757 65.5542Z" fill="url(#paint7_linear_4_712)"/>
<path opacity="0.5" d="M58.5757 74.1749H10.8468C10.531 74.1749 10.2784 73.9222 10.2784 73.6065V71.7907C10.2784 71.475 10.531 71.2224 10.8468 71.2224H58.5757C58.8915 71.2224 59.1441 71.475 59.1441 71.7907V73.6065C59.1283 73.9222 58.8915 74.1749 58.5757 74.1749Z" fill="url(#paint8_linear_4_712)"/>
<path opacity="0.5" d="M58.5757 82.7954H10.8468C10.531 82.7954 10.2784 82.5427 10.2784 82.227V80.4113C10.2784 80.0955 10.531 79.8429 10.8468 79.8429H58.5757C58.8915 79.8429 59.1441 80.0955 59.1441 80.4113V82.227C59.1283 82.5427 58.8915 82.7954 58.5757 82.7954Z" fill="url(#paint9_linear_4_712)"/>
<path opacity="0.1" d="M69.4225 4.31029V90.7055C69.4225 93.0896 67.4963 95.0158 65.1122 95.0158H4.31029C1.92621 95 0 93.0738 0 90.7055V89.2056C37.0874 73.8906 54.3601 15.1571 58.2599 0H65.1122C67.4963 0 69.4225 1.92621 69.4225 4.31029Z" fill="#1A6FB5" fill-opacity="0.4"/>
</g>
<defs>
<linearGradient id="paint0_linear_4_712" x1="95" y1="126" x2="-6" y2="-5.5" gradientUnits="userSpaceOnUse">
<stop offset="0.3061" stop-color="#5BA7FC"/>
<stop offset="1" stop-color="#69B8FC"/>
</linearGradient>
<linearGradient id="paint1_linear_4_712" x1="8.6241" y1="7.04564" x2="57.9385" y2="78.0313" gradientUnits="userSpaceOnUse">
<stop offset="0.3061" stop-color="white"/>
<stop offset="1" stop-color="white"/>
</linearGradient>
<linearGradient id="paint2_linear_4_712" x1="10.2906" y1="38.2072" x2="59.1355" y2="38.2072" gradientUnits="userSpaceOnUse">
<stop stop-color="#6CBCFC"/>
<stop offset="1" stop-color="#458DFC"/>
</linearGradient>
<linearGradient id="paint3_linear_4_712" x1="34.3248" y1="15.5844" x2="59.1355" y2="15.5844" gradientUnits="userSpaceOnUse">
<stop stop-color="#6CBCFC"/>
<stop offset="1" stop-color="#458DFC"/>
</linearGradient>
<linearGradient id="paint4_linear_4_712" x1="34.3248" y1="23.2616" x2="52.1256" y2="23.2616" gradientUnits="userSpaceOnUse">
<stop stop-color="#6CBCFC"/>
<stop offset="1" stop-color="#458DFC"/>
</linearGradient>
<linearGradient id="paint5_linear_4_712" x1="10.2906" y1="46.8317" x2="59.1355" y2="46.8317" gradientUnits="userSpaceOnUse">
<stop stop-color="#6CBCFC"/>
<stop offset="1" stop-color="#458DFC"/>
</linearGradient>
<linearGradient id="paint6_linear_4_712" x1="10.2906" y1="55.4562" x2="59.1355" y2="55.4562" gradientUnits="userSpaceOnUse">
<stop stop-color="#6CBCFC"/>
<stop offset="1" stop-color="#458DFC"/>
</linearGradient>
<linearGradient id="paint7_linear_4_712" x1="10.2906" y1="64.0806" x2="59.1355" y2="64.0806" gradientUnits="userSpaceOnUse">
<stop stop-color="#6CBCFC"/>
<stop offset="1" stop-color="#458DFC"/>
</linearGradient>
<linearGradient id="paint8_linear_4_712" x1="10.2906" y1="72.7051" x2="59.1355" y2="72.7051" gradientUnits="userSpaceOnUse">
<stop stop-color="#6CBCFC"/>
<stop offset="1" stop-color="#458DFC"/>
</linearGradient>
<linearGradient id="paint9_linear_4_712" x1="10.2906" y1="81.3296" x2="59.1355" y2="81.3296" gradientUnits="userSpaceOnUse">
<stop stop-color="#6CBCFC"/>
<stop offset="1" stop-color="#458DFC"/>
</linearGradient>
<clipPath id="clip0_4_712">
<rect width="69.4225" height="95" fill="white"/>
</clipPath>
</defs>
</svg>
