<svg width="163" height="41" viewBox="0 0 163 41" fill="none" xmlns="http://www.w3.org/2000/svg">
<path d="M54.872 30V13.08H57.968V20.136H66.632V13.08H69.728V30H66.632V22.704H57.968V30H54.872ZM79.0739 30.24C77.0419 30.24 75.4499 29.68 74.2979 28.56C73.1459 27.44 72.5699 25.904 72.5699 23.952C72.5699 22.688 72.8179 21.584 73.3139 20.64C73.8099 19.696 74.4979 18.96 75.3779 18.432C76.2739 17.904 77.3139 17.64 78.4979 17.64C79.6659 17.64 80.6419 17.888 81.4259 18.384C82.2099 18.88 82.8019 19.576 83.2019 20.472C83.6179 21.368 83.8259 22.416 83.8259 23.616V24.408H74.9939V22.824H81.6899L81.2819 23.16C81.2819 22.04 81.0419 21.184 80.5619 20.592C80.0979 20 79.4179 19.704 78.5219 19.704C77.5299 19.704 76.7619 20.056 76.2179 20.76C75.6899 21.464 75.4259 22.448 75.4259 23.712V24.024C75.4259 25.336 75.7459 26.32 76.3859 26.976C77.0419 27.616 77.9619 27.936 79.1459 27.936C79.8339 27.936 80.4739 27.848 81.0659 27.672C81.6739 27.48 82.2499 27.176 82.7939 26.76L83.6819 28.776C83.1059 29.24 82.4179 29.6 81.6179 29.856C80.8179 30.112 79.9699 30.24 79.0739 30.24ZM86.3664 30V12.336H89.3664V30H86.3664ZM92.6242 35.184V20.904C92.6242 20.408 92.6082 19.904 92.5762 19.392C92.5442 18.88 92.4962 18.376 92.4322 17.88H95.3362L95.6002 20.424H95.3362C95.5762 19.576 96.0802 18.904 96.8482 18.408C97.6322 17.896 98.5362 17.64 99.5602 17.64C100.632 17.64 101.568 17.896 102.368 18.408C103.168 18.904 103.792 19.624 104.24 20.568C104.688 21.496 104.912 22.616 104.912 23.928C104.912 25.24 104.688 26.368 104.24 27.312C103.792 28.256 103.168 28.984 102.368 29.496C101.568 29.992 100.632 30.24 99.5602 30.24C98.5522 30.24 97.6642 29.992 96.8962 29.496C96.1282 29 95.6162 28.336 95.3602 27.504H95.6242V35.184H92.6242ZM98.7202 27.936C99.6802 27.936 100.448 27.608 101.024 26.952C101.6 26.28 101.888 25.272 101.888 23.928C101.888 22.584 101.6 21.584 101.024 20.928C100.448 20.272 99.6802 19.944 98.7202 19.944C97.7762 19.944 97.0162 20.272 96.4402 20.928C95.8642 21.584 95.5762 22.584 95.5762 23.928C95.5762 25.272 95.8642 26.28 96.4402 26.952C97.0162 27.608 97.7762 27.936 98.7202 27.936ZM107.747 30V13.08H113.891C115.827 13.08 117.459 13.416 118.787 14.088C120.131 14.744 121.147 15.704 121.835 16.968C122.523 18.216 122.867 19.736 122.867 21.528C122.867 23.304 122.523 24.824 121.835 26.088C121.147 27.352 120.131 28.32 118.787 28.992C117.459 29.664 115.827 30 113.891 30H107.747ZM110.843 27.432H113.699C115.747 27.432 117.267 26.944 118.259 25.968C119.251 24.992 119.747 23.512 119.747 21.528C119.747 19.528 119.251 18.048 118.259 17.088C117.267 16.112 115.747 15.624 113.699 15.624H110.843V27.432ZM131.644 30.24C129.612 30.24 128.02 29.68 126.868 28.56C125.716 27.44 125.14 25.904 125.14 23.952C125.14 22.688 125.388 21.584 125.884 20.64C126.38 19.696 127.068 18.96 127.948 18.432C128.844 17.904 129.884 17.64 131.068 17.64C132.236 17.64 133.212 17.888 133.996 18.384C134.78 18.88 135.372 19.576 135.772 20.472C136.188 21.368 136.396 22.416 136.396 23.616V24.408H127.564V22.824H134.26L133.852 23.16C133.852 22.04 133.612 21.184 133.132 20.592C132.668 20 131.988 19.704 131.092 19.704C130.1 19.704 129.332 20.056 128.788 20.76C128.26 21.464 127.996 22.448 127.996 23.712V24.024C127.996 25.336 128.316 26.32 128.956 26.976C129.612 27.616 130.532 27.936 131.716 27.936C132.404 27.936 133.044 27.848 133.636 27.672C134.244 27.48 134.82 27.176 135.364 26.76L136.252 28.776C135.676 29.24 134.988 29.6 134.188 29.856C133.388 30.112 132.54 30.24 131.644 30.24ZM143.257 30.24C142.217 30.24 141.257 30.12 140.377 29.88C139.513 29.624 138.785 29.272 138.193 28.824L139.033 26.808C139.641 27.224 140.313 27.544 141.049 27.768C141.785 27.992 142.529 28.104 143.281 28.104C144.081 28.104 144.673 27.968 145.057 27.696C145.457 27.424 145.657 27.056 145.657 26.592C145.657 26.224 145.529 25.936 145.273 25.728C145.033 25.504 144.641 25.336 144.097 25.224L141.697 24.768C140.673 24.544 139.889 24.16 139.345 23.616C138.817 23.072 138.553 22.36 138.553 21.48C138.553 20.728 138.753 20.064 139.153 19.488C139.569 18.912 140.153 18.464 140.905 18.144C141.673 17.808 142.569 17.64 143.593 17.64C144.489 17.64 145.329 17.76 146.113 18C146.913 18.24 147.585 18.6 148.129 19.08L147.265 21.024C146.769 20.624 146.201 20.312 145.561 20.088C144.921 19.864 144.297 19.752 143.689 19.752C142.857 19.752 142.249 19.904 141.865 20.208C141.481 20.496 141.289 20.872 141.289 21.336C141.289 21.688 141.401 21.984 141.625 22.224C141.865 22.448 142.233 22.616 142.729 22.728L145.129 23.184C146.201 23.392 147.009 23.76 147.553 24.288C148.113 24.8 148.393 25.504 148.393 26.4C148.393 27.2 148.177 27.888 147.745 28.464C147.313 29.04 146.713 29.48 145.945 29.784C145.177 30.088 144.281 30.24 143.257 30.24ZM150.96 30V12.336H153.96V23.04H154.008L158.928 17.88H162.552L156.432 24.288L156.456 23.088L162.984 30H159.264L154.008 24.576H153.96V30H150.96Z" fill="white"/>
<circle cx="20.5" cy="20.5" r="20.5" fill="white"/>
<path d="M13.028 31V12.67H16.382V20.314H25.768V12.67H29.122V31H25.768V23.096H16.382V31H13.028Z" fill="#5B9BF3"/>
</svg>
